<svg width="28" height="35" viewBox="0 0 28 35" fill="none" xmlns="http://www.w3.org/2000/svg">
<path d="M7.55859 31.2207C7.55859 33.308 5.86654 35 3.7793 35C1.69205 35 0 33.3079 0 31.2207V14.8364C0 11.6525 1.02423 8.55312 2.92134 5.99616L7.33252 0.0506721C7.35617 0.0187949 7.39352 0 7.43321 0C7.50246 0 7.55859 0.0561346 7.55859 0.12538V31.2207Z" fill="white"/>
<path d="M27.7697 30.5635C27.7697 32.6507 26.0777 34.3428 23.9904 34.3428C21.9032 34.3428 20.2112 32.6507 20.2112 30.5635V14.6676C20.2112 11.4741 21.2534 8.36781 23.1797 5.8206L27.5435 0.0499451C27.5673 0.0184876 27.6044 0 27.6439 0C27.7134 0 27.7697 0.0563489 27.7697 0.125859V30.5635Z" fill="white"/>
<rect x="3.12205" y="14.7886" width="20.2112" height="6.90135" fill="white"/>
</svg>
